<svg width="360" height="337" viewBox="0 0 360 337" fill="none" xmlns="http://www.w3.org/2000/svg">
<path d="M356.336 24.6102C357.836 23.1673 359.09 21.4977 360.025 19.6967C360.961 17.8958 361.56 15.9987 361.789 14.1137C362.018 12.2288 361.872 10.393 361.36 8.71115C360.847 7.02927 359.978 5.53425 358.802 4.31145C357.626 3.08866 356.165 2.16203 354.505 1.58447C352.844 1.00692 351.015 0.789744 349.123 0.945358C347.23 1.10097 345.312 1.62632 343.476 2.49142C341.64 3.35651 339.923 4.5444 338.423 5.98727L347.379 15.2987L356.336 24.6102Z" fill="#6BA018" fill-opacity="0.2"/>
<path d="M-15.0916 153.52C-6.61349 152.58 1.60901 150.092 9.10639 146.199C16.6038 142.306 23.2292 137.084 28.6044 130.831C33.9796 124.578 37.9993 117.416 40.434 109.755C42.8687 102.094 43.6707 94.083 42.7943 86.18C41.9178 78.2771 39.38 70.6367 35.3258 63.6951C31.2716 56.7536 25.7804 50.6468 19.1657 45.7234C12.551 40.8 4.94234 37.1565 -3.22585 35.0009C-11.394 32.8452 -19.9618 32.2197 -28.44 33.1599L-27.5592 41.1018C-20.1999 40.2856 -12.7628 40.8286 -5.67254 42.6998C1.41772 44.5709 8.02228 47.7336 13.7641 52.0073C19.5058 56.2809 24.2724 61.5818 27.7915 67.6073C31.3107 73.6328 33.5136 80.2649 34.2744 87.1249C35.0352 93.9849 34.339 100.939 32.2256 107.589C30.1122 114.239 26.623 120.455 21.9571 125.883C17.2913 131.311 11.5402 135.844 5.03224 139.223C-1.47573 142.603 -8.61311 144.762 -15.9724 145.578L-15.0916 153.52Z" fill="#6BA018" fill-opacity="0.07"/>
<path d="M413.8 331.056C399.2 337.743 382.348 337.934 366.951 331.588C351.555 325.241 338.875 312.877 331.701 297.214C324.527 281.551 323.447 263.874 328.698 248.07C333.949 232.266 345.102 219.631 359.702 212.944L367.865 230.767C357.671 235.436 349.884 244.258 346.218 255.292C342.552 266.326 343.306 278.669 348.315 289.605C353.324 300.54 362.177 309.173 372.927 313.605C383.677 318.036 395.443 317.902 405.637 313.233L413.8 331.056Z" fill="#6BA018" fill-opacity="0.07"/>
</svg>
