<svg width="218" height="40" viewBox="0 0 218 40" fill="none" xmlns="http://www.w3.org/2000/svg">
<path d="M30.7245 39.808L3.6525 36.928H31.2365L30.7245 39.808ZM31.8125 33.6L4.7405 30.72H32.2605L31.8125 33.6ZM32.2605 27.456L5.1245 24.576H31.6845L32.2605 27.456ZM31.0445 21.312L3.9085 18.432H30.4685L31.0445 21.312ZM28.0365 6.144L28.6125 9.024L1.5405 6.144H28.0365ZM29.2525 12.288L29.8285 15.168L2.7565 12.288H29.2525ZM27.4605 2.88L0.388499 0H26.8845L27.4605 2.88ZM42.2445 0L43.0765 14.08H43.5245L49.4125 0H62.8525L46.7245 29.12L44.8685 40H32.7085L34.5645 29.12L28.8045 0H42.2445ZM93.4635 26.24H83.9275L83.1595 30.592H94.9995L93.3355 40H70.7435L76.6315 6.144H99.1595L96.1515 15.744H85.7195L84.9515 20.096H94.5515L93.4635 26.24ZM68.6315 39.808L41.4955 36.928H69.1435L68.6315 39.808ZM70.8075 27.456L43.6715 24.576H71.3195L70.8075 27.456ZM71.8955 21.312L44.7595 18.432H72.4075L71.8955 21.312ZM72.9835 15.168L45.8475 12.288H73.4955L72.9835 15.168ZM74.0715 9.024L46.9355 6.144H74.5195L74.0715 9.024ZM69.7195 33.6L42.5835 30.72H70.2315L69.7195 33.6ZM133.544 40H112.744L118.632 6.144H129.896L125.608 30.592H135.208L133.544 40ZM110.632 39.808L83.4955 36.928H111.144L110.632 39.808ZM112.808 27.456L85.6715 24.576H113.32L112.808 27.456ZM113.896 21.312L86.7595 18.432H114.408L113.896 21.312ZM114.984 15.168L87.8475 12.288H115.496L114.984 15.168ZM116.072 9.024L88.9355 6.144H116.52L116.072 9.024ZM111.72 33.6L84.5835 30.72H112.232L111.72 33.6ZM169.856 40H149.056L154.944 6.144H166.208L161.92 30.592H171.52L169.856 40ZM146.944 39.808L119.808 36.928H147.456L146.944 39.808ZM149.12 27.456L121.984 24.576H149.632L149.12 27.456ZM150.208 21.312L123.072 18.432H150.72L150.208 21.312ZM151.296 15.168L124.16 12.288H151.808L151.296 15.168ZM152.384 9.024L125.248 6.144H152.832L152.384 9.024ZM148.032 33.6L120.896 30.72H148.544L148.032 33.6ZM205.977 40L205.721 34.816H197.657L195.673 40H184.601L198.809 6.144H214.681L217.177 40H205.977ZM205.721 25.664V15.936H204.825L201.049 25.664H205.721ZM182.553 39.744L156.312 36.928H183.769L182.553 39.744ZM185.177 33.536L158.936 30.72H186.393L185.177 33.536ZM187.801 27.392L161.56 24.576H188.953L187.801 27.392ZM190.361 21.248L164.184 18.432H191.577L190.361 21.248ZM192.985 15.104L166.808 12.288H194.137L192.985 15.104ZM195.545 8.896L169.432 6.144H196.697L195.545 8.896Z" fill="#6BA018"/>
</svg>
