<svg width="360" height="351" viewBox="0 0 360 351" fill="none" xmlns="http://www.w3.org/2000/svg">
<path d="M94.7314 66.011C94.7314 65.835 94.746 65.648 94.7754 65.45C94.812 65.2447 94.8634 65.0283 94.9294 64.801C95.0027 64.5663 95.0907 64.3207 95.1934 64.064L95.9854 64.372C95.912 64.5773 95.846 64.7717 95.7874 64.955C95.736 65.1383 95.6957 65.3107 95.6664 65.472C95.6444 65.6333 95.6334 65.7873 95.6334 65.934C95.6334 66.3153 95.7324 66.6307 95.9304 66.88C96.1284 67.1293 96.3997 67.3163 96.7444 67.441C97.089 67.5657 97.4777 67.628 97.9104 67.628C98.4017 67.628 98.8124 67.562 99.1424 67.43C99.4797 67.298 99.7474 67.122 99.9454 66.902C100.143 66.6893 100.283 66.451 100.363 66.187C100.451 65.923 100.495 65.6627 100.495 65.406C100.495 65.1273 100.44 64.79 100.33 64.394C100.228 63.998 100.033 63.5067 99.7474 62.92L100.572 62.502C100.719 62.7807 100.851 63.074 100.968 63.382C101.093 63.6827 101.192 63.9943 101.265 64.317C101.346 64.6323 101.386 64.955 101.386 65.285C101.386 65.571 101.35 65.8643 101.276 66.165C101.21 66.4657 101.097 66.7553 100.935 67.034C100.774 67.32 100.558 67.573 100.286 67.793C100.022 68.0203 99.6924 68.2 99.2964 68.332C98.9077 68.464 98.442 68.53 97.8994 68.53C97.474 68.53 97.067 68.4787 96.6784 68.376C96.297 68.2807 95.9597 68.1303 95.6664 67.925C95.3804 67.7197 95.153 67.4593 94.9844 67.144C94.8157 66.8287 94.7314 66.451 94.7314 66.011ZM98.0534 61.622C97.8994 61.622 97.7674 61.5707 97.6574 61.468C97.5547 61.358 97.5034 61.2297 97.5034 61.083C97.5034 60.9363 97.5547 60.808 97.6574 60.698C97.7674 60.588 97.8994 60.533 98.0534 60.533C98.2 60.533 98.3247 60.588 98.4274 60.698C98.5374 60.808 98.5924 60.9363 98.5924 61.083C98.5924 61.2297 98.5374 61.358 98.4274 61.468C98.3247 61.5707 98.2 61.622 98.0534 61.622Z" fill="#565050"/>
<path d="M102.57 68.53L102.372 67.628C102.812 67.5693 103.215 67.485 103.582 67.375C103.956 67.2723 104.275 67.122 104.539 66.924C104.81 66.726 105.019 66.4657 105.166 66.143C105.312 65.8203 105.386 65.417 105.386 64.933C105.386 64.4343 105.294 64.02 105.111 63.69C104.927 63.36 104.689 63.195 104.396 63.195C104.242 63.195 104.099 63.2537 103.967 63.371C103.835 63.4883 103.725 63.646 103.637 63.844C103.556 64.042 103.516 64.2583 103.516 64.493C103.516 64.625 103.545 64.735 103.604 64.823C103.662 64.9037 103.747 64.9697 103.857 65.021C103.974 65.065 104.121 65.098 104.297 65.12C104.473 65.142 104.678 65.153 104.913 65.153H107.234C107.388 65.153 107.498 65.197 107.564 65.285C107.637 65.3657 107.674 65.4647 107.674 65.582C107.674 65.6993 107.622 65.8093 107.52 65.912C107.417 66.0073 107.285 66.055 107.124 66.055H104.495C104.165 66.055 103.857 66.0073 103.571 65.912C103.292 65.8167 103.065 65.67 102.889 65.472C102.72 65.2667 102.636 64.999 102.636 64.669C102.636 64.361 102.683 64.0677 102.779 63.789C102.874 63.503 103.002 63.25 103.164 63.03C103.332 62.8027 103.527 62.623 103.747 62.491C103.974 62.359 104.22 62.293 104.484 62.293C104.821 62.293 105.122 62.392 105.386 62.59C105.65 62.788 105.859 63.0887 106.013 63.492C106.167 63.888 106.244 64.3903 106.244 64.999C106.244 65.681 106.104 66.2677 105.826 66.759C105.554 67.2577 105.144 67.6537 104.594 67.947C104.051 68.2403 103.376 68.4347 102.57 68.53Z" fill="#565050"/>
<path d="M107.12 66.055L107.23 65.153C107.589 65.153 107.875 65.131 108.088 65.087C108.301 65.043 108.455 64.955 108.55 64.823C108.645 64.6837 108.693 64.4783 108.693 64.207C108.693 64.0237 108.664 63.8073 108.605 63.558C108.546 63.3013 108.469 63.03 108.374 62.744C108.279 62.458 108.176 62.1757 108.066 61.897L108.957 61.567C109.052 61.8017 109.14 62.0693 109.221 62.37C109.309 62.6707 109.382 62.9677 109.441 63.261C109.5 63.5543 109.529 63.811 109.529 64.031C109.529 64.3243 109.496 64.5847 109.43 64.812C109.371 65.032 109.28 65.2227 109.155 65.384C109.03 65.538 108.869 65.6663 108.671 65.769C108.48 65.8643 108.257 65.9377 108 65.989C107.743 66.033 107.45 66.055 107.12 66.055ZM108.297 68.101C108.143 68.101 108.011 68.046 107.901 67.936C107.798 67.8333 107.747 67.7087 107.747 67.562C107.747 67.4153 107.798 67.287 107.901 67.177C108.011 67.067 108.143 67.012 108.297 67.012C108.444 67.012 108.568 67.067 108.671 67.177C108.781 67.287 108.836 67.4153 108.836 67.562C108.836 67.7087 108.781 67.8333 108.671 67.936C108.568 68.046 108.444 68.101 108.297 68.101Z" fill="#565050"/>
<path d="M110.118 68.552L109.799 67.716C110.335 67.54 110.778 67.3383 111.13 67.111C111.49 66.8837 111.772 66.6417 111.977 66.385C112.19 66.1283 112.34 65.868 112.428 65.604C112.516 65.3327 112.56 65.0723 112.56 64.823C112.56 64.4637 112.48 64.1007 112.318 63.734C112.164 63.36 111.992 63.008 111.801 62.678L112.604 62.271C112.744 62.5277 112.865 62.7807 112.967 63.03C113.077 63.2793 113.173 63.514 113.253 63.734C113.341 63.954 113.411 64.1557 113.462 64.339C113.565 64.6543 113.697 64.8707 113.858 64.988C114.027 65.098 114.254 65.153 114.54 65.153C114.694 65.153 114.804 65.197 114.87 65.285C114.944 65.3657 114.98 65.4647 114.98 65.582C114.98 65.6993 114.929 65.8093 114.826 65.912C114.724 66.0073 114.592 66.055 114.43 66.055C114.108 66.055 113.844 66 113.638 65.89C113.44 65.7727 113.29 65.6223 113.187 65.439C113.085 65.2483 113.015 65.0503 112.978 64.845L113.33 65.043C113.33 65.527 113.22 65.967 113 66.363C112.788 66.7663 112.513 67.1147 112.175 67.408C111.838 67.7087 111.486 67.9543 111.119 68.145C110.753 68.3357 110.419 68.4713 110.118 68.552ZM111.867 61.006C111.713 61.006 111.581 60.9547 111.471 60.852C111.369 60.742 111.317 60.6137 111.317 60.467C111.317 60.3203 111.369 60.192 111.471 60.082C111.581 59.972 111.713 59.917 111.867 59.917C112.014 59.917 112.139 59.972 112.241 60.082C112.351 60.192 112.406 60.3203 112.406 60.467C112.406 60.6137 112.351 60.742 112.241 60.852C112.139 60.9547 112.014 61.006 111.867 61.006Z" fill="#565050"/>
<path d="M114.436 66.055L114.535 65.153C114.953 65.153 115.246 65.1127 115.415 65.032C115.583 64.9513 115.679 64.8083 115.701 64.603C115.73 64.3977 115.737 64.1117 115.723 63.745L115.514 58.146H116.405L116.625 63.646C116.639 64.0347 116.625 64.3793 116.581 64.68C116.544 64.9807 116.449 65.2337 116.295 65.439C116.148 65.6443 115.924 65.7983 115.624 65.901C115.33 66.0037 114.934 66.055 114.436 66.055Z" fill="#565050"/>
<path d="M118.305 66L118.085 58.146H118.976L119.196 66H118.305Z" fill="#565050"/>
<path d="M123.338 66.011C123.338 65.747 123.374 65.4537 123.448 65.131C123.521 64.8083 123.638 64.4527 123.8 64.064L124.592 64.372C124.474 64.68 124.386 64.9623 124.328 65.219C124.269 65.4757 124.24 65.714 124.24 65.934C124.24 66.3373 124.339 66.6637 124.537 66.913C124.742 67.1697 125.013 67.3567 125.351 67.474C125.695 67.5913 126.073 67.65 126.484 67.65C126.982 67.65 127.4 67.595 127.738 67.485C128.075 67.3823 128.343 67.2393 128.541 67.056C128.739 66.8727 128.878 66.6637 128.959 66.429C129.047 66.2017 129.091 65.9633 129.091 65.714C129.091 65.3913 129.065 65.087 129.014 64.801C128.97 64.515 128.907 64.2363 128.827 63.965C128.753 63.6863 128.673 63.404 128.585 63.118L129.476 62.876C129.556 63.1547 129.619 63.382 129.663 63.558C129.707 63.7267 129.74 63.8623 129.762 63.965C129.791 64.0677 129.817 64.1593 129.839 64.24C129.919 64.5113 130.026 64.713 130.158 64.845C130.29 64.9697 130.44 65.054 130.609 65.098C130.785 65.1347 130.964 65.153 131.148 65.153C131.302 65.153 131.412 65.197 131.478 65.285C131.551 65.3657 131.588 65.4647 131.588 65.582C131.588 65.6993 131.536 65.8093 131.434 65.912C131.331 66.0073 131.199 66.055 131.038 66.055C130.73 66.055 130.473 66.0037 130.268 65.901C130.062 65.791 129.901 65.6553 129.784 65.494C129.674 65.3327 129.6 65.164 129.564 64.988L130.015 65.549C129.993 65.923 129.919 66.286 129.795 66.638C129.677 66.9973 129.487 67.32 129.223 67.606C128.959 67.8993 128.599 68.1303 128.145 68.299C127.697 68.4677 127.133 68.552 126.451 68.552C126.033 68.552 125.637 68.5007 125.263 68.398C124.889 68.2953 124.555 68.1377 124.262 67.925C123.976 67.7197 123.748 67.4557 123.58 67.133C123.418 66.8177 123.338 66.4437 123.338 66.011ZM126.66 61.622C126.506 61.622 126.374 61.5707 126.264 61.468C126.161 61.358 126.11 61.2297 126.11 61.083C126.11 60.9363 126.161 60.808 126.264 60.698C126.374 60.588 126.506 60.533 126.66 60.533C126.806 60.533 126.931 60.588 127.034 60.698C127.144 60.808 127.199 60.9363 127.199 61.083C127.199 61.2297 127.144 61.358 127.034 61.468C126.931 61.5707 126.806 61.622 126.66 61.622Z" fill="#565050"/>
<path d="M131.043 66.055L131.153 65.153C131.52 65.153 131.806 65.1273 132.011 65.076C132.216 65.0173 132.37 64.911 132.473 64.757C132.583 64.5957 132.671 64.3647 132.737 64.064C132.803 63.7633 132.884 63.371 132.979 62.887L133.837 63.052C133.808 63.184 133.775 63.3307 133.738 63.492C133.701 63.6533 133.668 63.8147 133.639 63.976C133.617 64.13 133.606 64.2657 133.606 64.383C133.606 64.493 133.613 64.5957 133.628 64.691C133.643 64.7863 133.698 64.867 133.793 64.933C133.888 64.999 134.05 65.054 134.277 65.098C134.504 65.1347 134.831 65.153 135.256 65.153C135.41 65.153 135.52 65.197 135.586 65.285C135.659 65.3657 135.696 65.4647 135.696 65.582C135.696 65.6993 135.645 65.8093 135.542 65.912C135.439 66.0073 135.307 66.055 135.146 66.055C134.699 66.055 134.343 66.033 134.079 65.989C133.815 65.9377 133.613 65.8643 133.474 65.769C133.342 65.6737 133.247 65.5563 133.188 65.417C133.137 65.2703 133.096 65.1017 133.067 64.911L133.397 64.933C133.28 65.1677 133.151 65.3583 133.012 65.505C132.88 65.6517 132.726 65.7653 132.55 65.846C132.374 65.9267 132.161 65.9817 131.912 66.011C131.67 66.0403 131.38 66.055 131.043 66.055ZM133.815 68.134C133.661 68.134 133.529 68.079 133.419 67.969C133.316 67.8663 133.265 67.7417 133.265 67.595C133.265 67.4483 133.316 67.32 133.419 67.21C133.529 67.1 133.661 67.045 133.815 67.045C133.962 67.045 134.086 67.1 134.189 67.21C134.299 67.32 134.354 67.4483 134.354 67.595C134.354 67.7417 134.299 67.8663 134.189 67.969C134.086 68.079 133.962 68.134 133.815 68.134ZM132.308 68.134C132.154 68.134 132.022 68.079 131.912 67.969C131.809 67.8663 131.758 67.7417 131.758 67.595C131.758 67.4483 131.809 67.32 131.912 67.21C132.022 67.1 132.154 67.045 132.308 67.045C132.455 67.045 132.579 67.1 132.682 67.21C132.792 67.32 132.847 67.4483 132.847 67.595C132.847 67.7417 132.792 67.8663 132.682 67.969C132.579 68.079 132.455 68.134 132.308 68.134Z" fill="#565050"/>
<path d="M135.146 66.055L135.256 65.153C135.615 65.153 135.902 65.131 136.114 65.087C136.327 65.043 136.481 64.955 136.576 64.823C136.672 64.6837 136.719 64.4783 136.719 64.207C136.719 64.0237 136.69 63.8073 136.631 63.558C136.573 63.3013 136.496 63.03 136.4 62.744C136.305 62.458 136.202 62.1757 136.092 61.897L136.983 61.567C137.079 61.8017 137.167 62.0693 137.247 62.37C137.335 62.6707 137.409 62.9677 137.467 63.261C137.526 63.5543 137.555 63.811 137.555 64.031C137.555 64.3243 137.522 64.5847 137.456 64.812C137.398 65.032 137.306 65.2227 137.181 65.384C137.057 65.538 136.895 65.6663 136.697 65.769C136.507 65.8643 136.283 65.9377 136.026 65.989C135.77 66.033 135.476 66.055 135.146 66.055ZM136.323 68.101C136.169 68.101 136.037 68.046 135.927 67.936C135.825 67.8333 135.773 67.7087 135.773 67.562C135.773 67.4153 135.825 67.287 135.927 67.177C136.037 67.067 136.169 67.012 136.323 67.012C136.47 67.012 136.595 67.067 136.697 67.177C136.807 67.287 136.862 67.4153 136.862 67.562C136.862 67.7087 136.807 67.8333 136.697 67.936C136.595 68.046 136.47 68.101 136.323 68.101Z" fill="#565050"/>
<path d="M138.739 68.53L138.541 67.628C138.981 67.5693 139.384 67.485 139.751 67.375C140.125 67.2723 140.444 67.122 140.708 66.924C140.979 66.726 141.188 66.4657 141.335 66.143C141.481 65.8203 141.555 65.417 141.555 64.933C141.555 64.7057 141.533 64.4893 141.489 64.284C141.445 64.0713 141.379 63.8843 141.291 63.723C141.203 63.5617 141.096 63.4333 140.972 63.338C140.854 63.2427 140.719 63.195 140.565 63.195C140.396 63.195 140.242 63.261 140.103 63.393C139.971 63.5177 139.864 63.679 139.784 63.877C139.71 64.075 139.674 64.273 139.674 64.471C139.674 64.625 139.703 64.7607 139.762 64.878C139.828 64.988 139.934 65.0723 140.081 65.131C140.227 65.1897 140.418 65.219 140.653 65.219C140.865 65.219 141.078 65.197 141.291 65.153C141.511 65.109 141.698 65.0503 141.852 64.977L141.896 65.747C141.72 65.8717 141.511 65.9597 141.269 66.011C141.034 66.0623 140.796 66.088 140.554 66.088C140.275 66.088 140.026 66.0587 139.806 66C139.593 65.9413 139.41 65.857 139.256 65.747C139.109 65.6297 138.995 65.483 138.915 65.307C138.841 65.131 138.805 64.9257 138.805 64.691C138.805 64.4123 138.849 64.1337 138.937 63.855C139.025 63.569 139.149 63.3087 139.311 63.074C139.472 62.8393 139.666 62.6523 139.894 62.513C140.121 62.3663 140.374 62.293 140.653 62.293C140.946 62.293 141.203 62.37 141.423 62.524C141.643 62.6707 141.826 62.8723 141.973 63.129C142.119 63.3857 142.229 63.6753 142.303 63.998C142.376 64.3207 142.413 64.6543 142.413 64.999C142.413 65.681 142.273 66.2677 141.995 66.759C141.723 67.2577 141.313 67.6537 140.763 67.947C140.22 68.2403 139.545 68.4347 138.739 68.53Z" fill="#565050"/>
<path d="M150.404 66.231L150.69 65.329C151.409 65.329 152.003 65.3033 152.472 65.252C152.942 65.1933 153.305 65.1053 153.561 64.988C153.825 64.8633 154.009 64.7057 154.111 64.515C154.214 64.317 154.258 64.0787 154.243 63.8L154.034 58.146H154.925L155.145 63.701C155.16 64.075 155.219 64.3683 155.321 64.581C155.431 64.7937 155.578 64.944 155.761 65.032C155.945 65.1127 156.146 65.153 156.366 65.153C156.52 65.153 156.63 65.197 156.696 65.285C156.77 65.3657 156.806 65.4647 156.806 65.582C156.806 65.6993 156.755 65.8093 156.652 65.912C156.55 66.0073 156.418 66.055 156.256 66.055C155.912 66.055 155.633 66.0037 155.42 65.901C155.208 65.791 155.043 65.6553 154.925 65.494C154.815 65.3327 154.742 65.164 154.705 64.988L154.936 64.999C154.79 65.2263 154.592 65.4207 154.342 65.582C154.093 65.736 153.785 65.8607 153.418 65.956C153.052 66.0513 152.619 66.121 152.12 66.165C151.629 66.209 151.057 66.231 150.404 66.231ZM150.118 63.756L149.909 63.063C150.217 62.9823 150.467 62.9127 150.657 62.854C150.848 62.7953 150.984 62.7403 151.064 62.689C151.152 62.6303 151.196 62.5717 151.196 62.513C151.196 62.4323 151.152 62.359 151.064 62.293C150.984 62.2197 150.888 62.1463 150.778 62.073C150.676 61.9923 150.58 61.9007 150.492 61.798C150.412 61.6953 150.371 61.5707 150.371 61.424C150.371 61.292 150.408 61.1563 150.481 61.017C150.562 60.8703 150.701 60.72 150.899 60.566C151.097 60.4047 151.376 60.236 151.735 60.06L152.076 60.687C151.739 60.8483 151.49 60.9877 151.328 61.105C151.174 61.215 151.097 61.314 151.097 61.402C151.097 61.468 151.138 61.5377 151.218 61.611C151.306 61.6843 151.402 61.765 151.504 61.853C151.614 61.941 151.71 62.0437 151.79 62.161C151.878 62.271 151.922 62.403 151.922 62.557C151.922 62.6597 151.9 62.7623 151.856 62.865C151.812 62.9603 151.724 63.0593 151.592 63.162C151.468 63.2573 151.288 63.3563 151.053 63.459C150.819 63.5543 150.507 63.6533 150.118 63.756ZM150.404 66.231C149.752 66.231 149.176 66.187 148.677 66.099C148.186 66.0183 147.775 65.89 147.445 65.714C147.115 65.538 146.866 65.3107 146.697 65.032C146.529 64.746 146.444 64.4013 146.444 63.998C146.444 63.8147 146.459 63.6277 146.488 63.437C146.518 63.239 146.554 63.041 146.598 62.843C146.65 62.645 146.701 62.4543 146.752 62.271L147.577 62.48C147.548 62.59 147.515 62.722 147.478 62.876C147.442 63.0227 147.409 63.173 147.379 63.327C147.357 63.481 147.346 63.6203 147.346 63.745C147.346 64.1263 147.442 64.4343 147.632 64.669C147.83 64.8963 148.171 65.065 148.655 65.175C149.139 65.2777 149.818 65.329 150.69 65.329L150.91 65.879L150.404 66.231Z" fill="#565050"/>
<path d="M156.255 66.055L156.365 65.153C156.673 65.153 156.915 65.1273 157.091 65.076C157.267 65.0173 157.399 64.911 157.487 64.757C157.582 64.5957 157.663 64.3647 157.729 64.064C157.795 63.7633 157.876 63.371 157.971 62.887L158.829 63.052C158.8 63.184 158.767 63.3307 158.73 63.492C158.693 63.6533 158.66 63.8147 158.631 63.976C158.609 64.13 158.598 64.2657 158.598 64.383C158.598 64.5297 158.631 64.6617 158.697 64.779C158.763 64.8963 158.906 64.988 159.126 65.054C159.346 65.12 159.683 65.153 160.138 65.153C160.292 65.153 160.402 65.197 160.468 65.285C160.541 65.3657 160.578 65.4647 160.578 65.582C160.578 65.6993 160.527 65.8093 160.424 65.912C160.321 66.0073 160.189 66.055 160.028 66.055C159.551 66.055 159.177 66.0147 158.906 65.934C158.635 65.846 158.437 65.7177 158.312 65.549C158.187 65.373 158.103 65.1603 158.059 64.911L158.389 64.933C158.272 65.1677 158.143 65.3583 158.004 65.505C157.872 65.6517 157.725 65.7653 157.564 65.846C157.403 65.9267 157.216 65.9817 157.003 66.011C156.79 66.0403 156.541 66.055 156.255 66.055ZM157.971 61.754C157.817 61.754 157.685 61.7027 157.575 61.6C157.472 61.49 157.421 61.3617 157.421 61.215C157.421 61.0683 157.472 60.94 157.575 60.83C157.685 60.72 157.817 60.665 157.971 60.665C158.118 60.665 158.242 60.72 158.345 60.83C158.455 60.94 158.51 61.0683 158.51 61.215C158.51 61.3617 158.455 61.49 158.345 61.6C158.242 61.7027 158.118 61.754 157.971 61.754Z" fill="#565050"/>
<path d="M160.025 66.055L160.135 65.153C160.502 65.153 160.788 65.1273 160.993 65.076C161.199 65.0173 161.353 64.911 161.455 64.757C161.565 64.5957 161.653 64.3647 161.719 64.064C161.785 63.7633 161.866 63.371 161.961 62.887L162.819 63.052C162.79 63.184 162.757 63.3307 162.72 63.492C162.684 63.6533 162.651 63.8147 162.621 63.976C162.599 64.13 162.588 64.2657 162.588 64.383C162.588 64.493 162.596 64.5957 162.61 64.691C162.625 64.7863 162.68 64.867 162.775 64.933C162.871 64.999 163.032 65.054 163.259 65.098C163.487 65.1347 163.813 65.153 164.238 65.153C164.392 65.153 164.502 65.197 164.568 65.285C164.642 65.3657 164.678 65.4647 164.678 65.582C164.678 65.6993 164.627 65.8093 164.524 65.912C164.422 66.0073 164.29 66.055 164.128 66.055C163.681 66.055 163.325 66.033 163.061 65.989C162.797 65.9377 162.596 65.8643 162.456 65.769C162.324 65.6737 162.229 65.5563 162.17 65.417C162.119 65.2703 162.079 65.1017 162.049 64.911L162.379 64.933C162.262 65.1677 162.134 65.3583 161.994 65.505C161.862 65.6517 161.708 65.7653 161.532 65.846C161.356 65.9267 161.144 65.9817 160.894 66.011C160.652 66.0403 160.363 66.055 160.025 66.055ZM162.797 68.134C162.643 68.134 162.511 68.079 162.401 67.969C162.299 67.8663 162.247 67.7417 162.247 67.595C162.247 67.4483 162.299 67.32 162.401 67.21C162.511 67.1 162.643 67.045 162.797 67.045C162.944 67.045 163.069 67.1 163.171 67.21C163.281 67.32 163.336 67.4483 163.336 67.595C163.336 67.7417 163.281 67.8663 163.171 67.969C163.069 68.079 162.944 68.134 162.797 68.134ZM161.29 68.134C161.136 68.134 161.004 68.079 160.894 67.969C160.792 67.8663 160.74 67.7417 160.74 67.595C160.74 67.4483 160.792 67.32 160.894 67.21C161.004 67.1 161.136 67.045 161.29 67.045C161.437 67.045 161.562 67.1 161.664 67.21C161.774 67.32 161.829 67.4483 161.829 67.595C161.829 67.7417 161.774 67.8663 161.664 67.969C161.562 68.079 161.437 68.134 161.29 68.134Z" fill="#565050"/>
<path d="M164.128 66.055L164.238 65.153C164.598 65.153 164.884 65.131 165.097 65.087C165.31 65.043 165.464 64.955 165.559 64.823C165.654 64.6837 165.702 64.4783 165.702 64.207C165.702 64.0237 165.673 63.8073 165.614 63.558C165.555 63.3013 165.478 63.03 165.383 62.744C165.288 62.458 165.185 62.1757 165.075 61.897L165.966 61.567C166.061 61.8017 166.149 62.0693 166.23 62.37C166.318 62.6707 166.391 62.9677 166.45 63.261C166.509 63.5543 166.538 63.811 166.538 64.031C166.538 64.3243 166.505 64.5847 166.439 64.812C166.38 65.032 166.289 65.2227 166.164 65.384C166.039 65.538 165.878 65.6663 165.68 65.769C165.489 65.8643 165.266 65.9377 165.009 65.989C164.752 66.033 164.458 66.055 164.128 66.055ZM165.306 68.101C165.152 68.101 165.02 68.046 164.91 67.936C164.807 67.8333 164.756 67.7087 164.756 67.562C164.756 67.4153 164.807 67.287 164.91 67.177C165.02 67.067 165.152 67.012 165.306 67.012C165.453 67.012 165.577 67.067 165.68 67.177C165.79 67.287 165.845 67.4153 165.845 67.562C165.845 67.7087 165.79 67.8333 165.68 67.936C165.577 68.046 165.453 68.101 165.306 68.101Z" fill="#565050"/>
<path d="M175.523 66.055C175.127 66.055 174.775 66 174.467 65.89C174.166 65.7727 173.924 65.5783 173.741 65.307C173.565 65.0283 173.466 64.6433 173.444 64.152L173.268 60.324H174.159L174.335 63.954C174.357 64.2987 174.419 64.559 174.522 64.735C174.624 64.9037 174.767 65.0173 174.951 65.076C175.141 65.1273 175.369 65.153 175.633 65.153C175.787 65.153 175.897 65.197 175.963 65.285C176.036 65.3657 176.073 65.4647 176.073 65.582C176.073 65.6993 176.021 65.8093 175.919 65.912C175.816 66.0073 175.684 66.055 175.523 66.055ZM173.862 64.845C173.444 64.977 173.037 65.043 172.641 65.043C172.245 65.043 171.885 64.9843 171.563 64.867C171.24 64.7497 170.983 64.581 170.793 64.361C170.602 64.1337 170.507 63.8623 170.507 63.547C170.507 63.239 170.584 62.9493 170.738 62.678C170.899 62.4067 171.115 62.1647 171.387 61.952C171.665 61.7393 171.984 61.5633 172.344 61.424C172.71 61.2773 173.099 61.1783 173.51 61.127L173.664 62.051C173.297 62.0657 172.971 62.117 172.685 62.205C172.406 62.2857 172.168 62.392 171.97 62.524C171.779 62.656 171.632 62.799 171.53 62.953C171.427 63.107 171.376 63.2573 171.376 63.404C171.376 63.5653 171.434 63.6973 171.552 63.8C171.669 63.9027 171.819 63.9833 172.003 64.042C172.186 64.0933 172.388 64.1263 172.608 64.141C172.828 64.1483 173.04 64.141 173.246 64.119C173.451 64.0897 173.627 64.0493 173.774 63.998L173.862 64.845ZM173.631 59.059C173.477 59.059 173.345 59.0077 173.235 58.905C173.132 58.795 173.081 58.6667 173.081 58.52C173.081 58.3733 173.132 58.245 173.235 58.135C173.345 58.025 173.477 57.97 173.631 57.97C173.777 57.97 173.902 58.025 174.005 58.135C174.115 58.245 174.17 58.3733 174.17 58.52C174.17 58.6667 174.115 58.795 174.005 58.905C173.902 59.0077 173.777 59.059 173.631 59.059ZM172.124 59.059C171.97 59.059 171.838 59.0077 171.728 58.905C171.625 58.795 171.574 58.6667 171.574 58.52C171.574 58.3733 171.625 58.245 171.728 58.135C171.838 58.025 171.97 57.97 172.124 57.97C172.27 57.97 172.395 58.025 172.498 58.135C172.608 58.245 172.663 58.3733 172.663 58.52C172.663 58.6667 172.608 58.795 172.498 58.905C172.395 59.0077 172.27 59.059 172.124 59.059Z" fill="#565050"/>
<path d="M175.526 66.055L175.636 65.153C176.098 65.153 176.454 65.1493 176.703 65.142C176.96 65.1347 177.147 65.1273 177.264 65.12C177.382 65.1053 177.462 65.098 177.506 65.098C177.374 65.0247 177.22 64.911 177.044 64.757C176.868 64.5957 176.714 64.394 176.582 64.152C176.45 63.9027 176.384 63.6093 176.384 63.272C176.384 62.854 176.48 62.4873 176.67 62.172C176.868 61.8567 177.136 61.611 177.473 61.435C177.818 61.259 178.21 61.171 178.65 61.171C178.819 61.171 178.999 61.1857 179.189 61.215C179.38 61.2443 179.563 61.2883 179.739 61.347L179.552 62.194C179.406 62.1573 179.252 62.128 179.09 62.106C178.929 62.084 178.782 62.073 178.65 62.073C178.386 62.073 178.152 62.1243 177.946 62.227C177.741 62.3223 177.58 62.458 177.462 62.634C177.345 62.81 177.286 63.0227 177.286 63.272C177.286 63.4627 177.327 63.6387 177.407 63.8C177.488 63.954 177.594 64.0933 177.726 64.218C177.858 64.3427 178.005 64.4453 178.166 64.526C178.328 64.6067 178.485 64.669 178.639 64.713C178.801 64.757 178.944 64.7753 179.068 64.768C179.156 64.7387 179.237 64.713 179.31 64.691C179.384 64.669 179.464 64.6433 179.552 64.614C179.648 64.5773 179.761 64.5297 179.893 64.471C180.033 64.4123 180.209 64.3353 180.421 64.24L180.729 65.043C180.238 65.241 179.736 65.417 179.222 65.571C178.716 65.725 178.163 65.846 177.561 65.934C176.967 66.0147 176.289 66.055 175.526 66.055Z" fill="#565050"/>
<path d="M184.26 66.055C183.673 66.055 183.222 65.989 182.907 65.857C182.599 65.725 182.386 65.5197 182.269 65.241C182.151 64.9623 182.085 64.603 182.071 64.163L181.851 58.146H182.753L182.973 63.811C182.987 64.1703 183.02 64.449 183.072 64.647C183.13 64.8377 183.255 64.9697 183.446 65.043C183.644 65.1163 183.952 65.153 184.37 65.153C184.524 65.153 184.634 65.197 184.7 65.285C184.773 65.3657 184.81 65.4647 184.81 65.582C184.81 65.6993 184.758 65.8093 184.656 65.912C184.553 66.0073 184.421 66.055 184.26 66.055Z" fill="#565050"/>
<path d="M194.699 66.055C194.508 66.055 194.266 66.0367 193.973 66C193.687 65.956 193.393 65.8827 193.093 65.78C192.799 65.6773 192.55 65.5343 192.345 65.351L193.247 64.9C193.503 65.0027 193.767 65.0723 194.039 65.109C194.317 65.1383 194.574 65.153 194.809 65.153C194.963 65.153 195.073 65.197 195.139 65.285C195.212 65.3657 195.249 65.4647 195.249 65.582C195.249 65.6993 195.197 65.8093 195.095 65.912C194.992 66.0073 194.86 66.055 194.699 66.055ZM189.584 66.198C188.938 66.198 188.396 66.1723 187.956 66.121C187.523 66.077 187.171 66.0073 186.9 65.912C186.628 65.8167 186.423 65.6957 186.284 65.549C186.144 65.4023 186.049 65.2263 185.998 65.021L186.251 64.933C186.067 65.285 185.869 65.5417 185.657 65.703C185.444 65.857 185.22 65.956 184.986 66C184.758 66.0367 184.516 66.055 184.26 66.055L184.37 65.153C184.626 65.153 184.835 65.1163 184.997 65.043C185.165 64.9697 185.301 64.8487 185.404 64.68C185.514 64.5113 185.609 64.2877 185.69 64.009C185.77 63.7303 185.858 63.3857 185.954 62.975L186.757 63.184C186.713 63.3527 186.672 63.514 186.636 63.668C186.599 63.822 186.57 63.9577 186.548 64.075C186.533 64.185 186.526 64.273 186.526 64.339C186.526 64.515 186.566 64.6653 186.647 64.79C186.727 64.9073 186.881 65.0063 187.109 65.087C187.336 65.1603 187.662 65.2153 188.088 65.252C188.52 65.2813 189.085 65.296 189.782 65.296C190.266 65.296 190.698 65.2667 191.08 65.208C191.461 65.1493 191.78 65.0613 192.037 64.944C192.301 64.8193 192.502 64.669 192.642 64.493C192.781 64.317 192.851 64.1153 192.851 63.888C192.851 63.7267 192.81 63.569 192.73 63.415C192.649 63.2537 192.524 63.118 192.356 63.008C192.187 62.898 191.963 62.843 191.685 62.843C191.333 62.843 190.981 62.9347 190.629 63.118C190.284 63.3013 189.954 63.5323 189.639 63.811C189.331 64.0823 189.056 64.361 188.814 64.647C188.572 64.933 188.377 65.1823 188.231 65.395L187.274 65.362C187.508 64.9807 187.787 64.592 188.11 64.196C188.44 63.7927 188.799 63.4223 189.188 63.085C189.584 62.7403 189.998 62.4653 190.431 62.26C190.863 62.0473 191.303 61.941 191.751 61.941C192.154 61.941 192.499 62.0253 192.785 62.194C193.078 62.3553 193.302 62.5753 193.456 62.854C193.617 63.1327 193.698 63.448 193.698 63.8C193.698 64.2327 193.569 64.6323 193.313 64.999C193.063 65.3583 192.638 65.648 192.037 65.868C191.435 66.088 190.618 66.198 189.584 66.198ZM191.432 60.808C191.278 60.808 191.146 60.7567 191.036 60.654C190.933 60.544 190.882 60.4157 190.882 60.269C190.882 60.1223 190.933 59.994 191.036 59.884C191.146 59.774 191.278 59.719 191.432 59.719C191.578 59.719 191.703 59.774 191.806 59.884C191.916 59.994 191.971 60.1223 191.971 60.269C191.971 60.4157 191.916 60.544 191.806 60.654C191.703 60.7567 191.578 60.808 191.432 60.808Z" fill="#565050"/>
<path d="M194.701 66.055L194.811 65.153C195.119 65.153 195.361 65.1273 195.537 65.076C195.713 65.0173 195.845 64.911 195.933 64.757C196.028 64.5957 196.109 64.3647 196.175 64.064C196.241 63.7633 196.322 63.371 196.417 62.887L197.275 63.052C197.246 63.184 197.213 63.3307 197.176 63.492C197.139 63.6533 197.106 63.8147 197.077 63.976C197.055 64.13 197.044 64.2657 197.044 64.383C197.044 64.5297 197.077 64.6617 197.143 64.779C197.209 64.8963 197.352 64.988 197.572 65.054C197.792 65.12 198.13 65.153 198.584 65.153C198.738 65.153 198.848 65.197 198.914 65.285C198.988 65.3657 199.024 65.4647 199.024 65.582C199.024 65.6993 198.973 65.8093 198.87 65.912C198.767 66.0073 198.636 66.055 198.474 66.055C197.998 66.055 197.624 66.0147 197.352 65.934C197.081 65.846 196.883 65.7177 196.758 65.549C196.633 65.373 196.549 65.1603 196.505 64.911L196.835 64.933C196.718 65.1677 196.589 65.3583 196.45 65.505C196.318 65.6517 196.171 65.7653 196.01 65.846C195.849 65.9267 195.662 65.9817 195.449 66.011C195.237 66.0403 194.987 66.055 194.701 66.055ZM196.571 68.101C196.417 68.101 196.285 68.046 196.175 67.936C196.073 67.8333 196.021 67.7087 196.021 67.562C196.021 67.4153 196.073 67.287 196.175 67.177C196.285 67.067 196.417 67.012 196.571 67.012C196.718 67.012 196.843 67.067 196.945 67.177C197.055 67.287 197.11 67.4153 197.11 67.562C197.11 67.7087 197.055 67.8333 196.945 67.936C196.843 68.046 196.718 68.101 196.571 68.101Z" fill="#565050"/>
<path d="M198.472 66.055L198.571 65.153C198.989 65.153 199.282 65.1127 199.451 65.032C199.619 64.9513 199.715 64.8083 199.737 64.603C199.766 64.3977 199.773 64.1117 199.759 63.745L199.55 58.146H200.441L200.661 63.646C200.675 64.0347 200.661 64.3793 200.617 64.68C200.58 64.9807 200.485 65.2337 200.331 65.439C200.184 65.6443 199.96 65.7983 199.66 65.901C199.366 66.0037 198.97 66.055 198.472 66.055Z" fill="#565050"/>
<path d="M202.341 66L202.121 58.146H203.012L203.232 66H202.341Z" fill="#565050"/>
<path d="M207.374 66.011C207.374 65.835 207.389 65.648 207.418 65.45C207.455 65.2447 207.506 65.0283 207.572 64.801C207.645 64.5663 207.733 64.3207 207.836 64.064L208.628 64.372C208.555 64.5773 208.489 64.7717 208.43 64.955C208.379 65.1383 208.338 65.3107 208.309 65.472C208.287 65.6333 208.276 65.7873 208.276 65.934C208.276 66.308 208.375 66.6233 208.573 66.88C208.771 67.1367 209.028 67.3273 209.343 67.452C209.666 67.584 210.01 67.65 210.377 67.65C211.096 67.65 211.657 67.5217 212.06 67.265C212.463 67.0157 212.746 66.682 212.907 66.264C213.068 65.8533 213.138 65.4023 213.116 64.911L212.874 58.146H213.787L213.963 63.723C213.978 64.097 214.036 64.3903 214.139 64.603C214.249 64.8083 214.396 64.9513 214.579 65.032C214.762 65.1127 214.964 65.153 215.184 65.153C215.338 65.153 215.448 65.197 215.514 65.285C215.587 65.3657 215.624 65.4647 215.624 65.582C215.624 65.6993 215.573 65.8093 215.47 65.912C215.367 66.0073 215.235 66.055 215.074 66.055C214.847 66.055 214.652 66.0257 214.491 65.967C214.33 65.901 214.198 65.8203 214.095 65.725C213.992 65.6223 213.912 65.5087 213.853 65.384C213.794 65.252 213.75 65.12 213.721 64.988L214.029 65.296C214 65.6847 213.915 66.0697 213.776 66.451C213.644 66.8397 213.439 67.1917 213.16 67.507C212.881 67.8223 212.507 68.0753 212.038 68.266C211.576 68.4567 211.004 68.552 210.322 68.552C209.941 68.552 209.57 68.4933 209.211 68.376C208.859 68.266 208.544 68.101 208.265 67.881C207.994 67.661 207.777 67.3933 207.616 67.078C207.455 66.77 207.374 66.4143 207.374 66.011Z" fill="#565050"/>
<path d="M215.079 66.055L215.189 65.153C215.556 65.153 215.842 65.1273 216.047 65.076C216.252 65.0173 216.406 64.911 216.509 64.757C216.619 64.5957 216.707 64.3647 216.773 64.064C216.839 63.7633 216.92 63.371 217.015 62.887L217.873 63.052C217.844 63.184 217.811 63.3307 217.774 63.492C217.737 63.6533 217.704 63.8147 217.675 63.976C217.653 64.13 217.642 64.2657 217.642 64.383C217.642 64.493 217.649 64.5957 217.664 64.691C217.679 64.7863 217.734 64.867 217.829 64.933C217.924 64.999 218.086 65.054 218.313 65.098C218.54 65.1347 218.867 65.153 219.292 65.153C219.446 65.153 219.556 65.197 219.622 65.285C219.695 65.3657 219.732 65.4647 219.732 65.582C219.732 65.6993 219.681 65.8093 219.578 65.912C219.475 66.0073 219.343 66.055 219.182 66.055C218.735 66.055 218.379 66.033 218.115 65.989C217.851 65.9377 217.649 65.8643 217.51 65.769C217.378 65.6737 217.283 65.5563 217.224 65.417C217.173 65.2703 217.132 65.1017 217.103 64.911L217.433 64.933C217.316 65.1677 217.187 65.3583 217.048 65.505C216.916 65.6517 216.762 65.7653 216.586 65.846C216.41 65.9267 216.197 65.9817 215.948 66.011C215.706 66.0403 215.416 66.055 215.079 66.055ZM217.851 68.134C217.697 68.134 217.565 68.079 217.455 67.969C217.352 67.8663 217.301 67.7417 217.301 67.595C217.301 67.4483 217.352 67.32 217.455 67.21C217.565 67.1 217.697 67.045 217.851 67.045C217.998 67.045 218.122 67.1 218.225 67.21C218.335 67.32 218.39 67.4483 218.39 67.595C218.39 67.7417 218.335 67.8663 218.225 67.969C218.122 68.079 217.998 68.134 217.851 68.134ZM216.344 68.134C216.19 68.134 216.058 68.079 215.948 67.969C215.845 67.8663 215.794 67.7417 215.794 67.595C215.794 67.4483 215.845 67.32 215.948 67.21C216.058 67.1 216.19 67.045 216.344 67.045C216.491 67.045 216.615 67.1 216.718 67.21C216.828 67.32 216.883 67.4483 216.883 67.595C216.883 67.7417 216.828 67.8663 216.718 67.969C216.615 68.079 216.491 68.134 216.344 68.134Z" fill="#565050"/>
<path d="M224.507 66.198C223.861 66.198 223.319 66.1723 222.879 66.121C222.446 66.077 222.094 66.0073 221.823 65.912C221.551 65.8167 221.346 65.6957 221.207 65.549C221.067 65.4023 220.972 65.2263 220.921 65.021L221.174 64.933C220.99 65.285 220.792 65.5417 220.58 65.703C220.367 65.857 220.143 65.956 219.909 66C219.681 66.0367 219.439 66.055 219.182 66.055L219.292 65.153C219.549 65.153 219.758 65.1163 219.92 65.043C220.088 64.9697 220.224 64.8487 220.327 64.68C220.437 64.5113 220.532 64.2877 220.613 64.009C220.693 63.7303 220.781 63.3857 220.877 62.975L221.68 63.184C221.636 63.3527 221.595 63.514 221.559 63.668C221.522 63.822 221.493 63.9577 221.471 64.075C221.456 64.185 221.449 64.273 221.449 64.339C221.449 64.515 221.489 64.6653 221.57 64.79C221.65 64.9073 221.804 65.0063 222.032 65.087C222.259 65.1603 222.585 65.2153 223.011 65.252C223.443 65.2813 224.008 65.296 224.705 65.296C225.189 65.296 225.621 65.2667 226.003 65.208C226.384 65.1493 226.703 65.0613 226.96 64.944C227.224 64.8193 227.425 64.669 227.565 64.493C227.704 64.317 227.774 64.1153 227.774 63.888C227.774 63.7267 227.733 63.569 227.653 63.415C227.572 63.2537 227.447 63.118 227.279 63.008C227.11 62.898 226.886 62.843 226.608 62.843C226.256 62.843 225.904 62.9347 225.552 63.118C225.207 63.3013 224.877 63.5323 224.562 63.811C224.254 64.0823 223.979 64.361 223.737 64.647C223.495 64.933 223.3 65.1823 223.154 65.395L222.197 65.362C222.431 64.9807 222.71 64.592 223.033 64.196C223.363 63.7927 223.722 63.4223 224.111 63.085C224.507 62.7403 224.921 62.4653 225.354 62.26C225.786 62.0473 226.226 61.941 226.674 61.941C227.077 61.941 227.422 62.0253 227.708 62.194C228.001 62.3553 228.225 62.5753 228.379 62.854C228.54 63.1327 228.621 63.448 228.621 63.8C228.621 64.2327 228.492 64.6323 228.236 64.999C227.986 65.3583 227.561 65.648 226.96 65.868C226.358 66.088 225.541 66.198 224.507 66.198Z" fill="#565050"/>
<path d="M229.757 68.53L229.559 67.628C229.999 67.5693 230.402 67.485 230.769 67.375C231.143 67.2723 231.462 67.122 231.726 66.924C231.997 66.726 232.206 66.4657 232.353 66.143C232.5 65.8203 232.573 65.417 232.573 64.933C232.573 64.4343 232.481 64.02 232.298 63.69C232.115 63.36 231.876 63.195 231.583 63.195C231.429 63.195 231.286 63.2537 231.154 63.371C231.022 63.4883 230.912 63.646 230.824 63.844C230.743 64.042 230.703 64.2583 230.703 64.493C230.703 64.625 230.732 64.735 230.791 64.823C230.85 64.9037 230.934 64.9697 231.044 65.021C231.161 65.065 231.308 65.098 231.484 65.12C231.66 65.142 231.865 65.153 232.1 65.153H234.421C234.575 65.153 234.685 65.197 234.751 65.285C234.824 65.3657 234.861 65.4647 234.861 65.582C234.861 65.6993 234.81 65.8093 234.707 65.912C234.604 66.0073 234.472 66.055 234.311 66.055H231.682C231.352 66.055 231.044 66.0073 230.758 65.912C230.479 65.8167 230.252 65.67 230.076 65.472C229.907 65.2667 229.823 64.999 229.823 64.669C229.823 64.361 229.871 64.0677 229.966 63.789C230.061 63.503 230.19 63.25 230.351 63.03C230.52 62.8027 230.714 62.623 230.934 62.491C231.161 62.359 231.407 62.293 231.671 62.293C232.008 62.293 232.309 62.392 232.573 62.59C232.837 62.788 233.046 63.0887 233.2 63.492C233.354 63.888 233.431 64.3903 233.431 64.999C233.431 65.681 233.292 66.2677 233.013 66.759C232.742 67.2577 232.331 67.6537 231.781 67.947C231.238 68.2403 230.564 68.4347 229.757 68.53Z" fill="#565050"/>
<path d="M234.308 66.055L234.418 65.153C234.85 65.153 235.188 65.1383 235.43 65.109C235.672 65.0723 235.844 64.988 235.947 64.856C236.049 64.7167 236.101 64.5003 236.101 64.207C236.101 64.0237 236.071 63.8073 236.013 63.558C235.954 63.3013 235.877 63.03 235.782 62.744C235.686 62.458 235.584 62.1757 235.474 61.897L236.365 61.567C236.46 61.8017 236.548 62.0693 236.629 62.37C236.717 62.6707 236.79 62.9677 236.849 63.261C236.907 63.5543 236.937 63.811 236.937 64.031C236.937 64.3977 236.885 64.7093 236.783 64.966C236.687 65.2227 236.533 65.4317 236.321 65.593C236.108 65.7543 235.833 65.8717 235.496 65.945C235.166 66.0183 234.77 66.055 234.308 66.055ZM236.706 60.423C236.552 60.423 236.42 60.3717 236.31 60.269C236.207 60.159 236.156 60.0307 236.156 59.884C236.156 59.7373 236.207 59.609 236.31 59.499C236.42 59.389 236.552 59.334 236.706 59.334C236.852 59.334 236.977 59.389 237.08 59.499C237.19 59.609 237.245 59.7373 237.245 59.884C237.245 60.0307 237.19 60.159 237.08 60.269C236.977 60.3717 236.852 60.423 236.706 60.423ZM235.199 60.423C235.045 60.423 234.913 60.3717 234.803 60.269C234.7 60.159 234.649 60.0307 234.649 59.884C234.649 59.7373 234.7 59.609 234.803 59.499C234.913 59.389 235.045 59.334 235.199 59.334C235.345 59.334 235.47 59.389 235.573 59.499C235.683 59.609 235.738 59.7373 235.738 59.884C235.738 60.0307 235.683 60.159 235.573 60.269C235.47 60.3717 235.345 60.423 235.199 60.423Z" fill="#565050"/>
<path d="M241.018 66.011C241.018 65.835 241.033 65.648 241.062 65.45C241.099 65.2447 241.15 65.0283 241.216 64.801C241.29 64.5663 241.378 64.3207 241.48 64.064L242.272 64.372C242.199 64.5773 242.133 64.7717 242.074 64.955C242.023 65.1383 241.983 65.3107 241.953 65.472C241.931 65.6333 241.92 65.7873 241.92 65.934C241.92 66.308 242.019 66.6233 242.217 66.88C242.415 67.1367 242.672 67.3273 242.987 67.452C243.31 67.584 243.655 67.65 244.021 67.65C244.74 67.65 245.301 67.5217 245.704 67.265C246.108 67.0157 246.39 66.682 246.551 66.264C246.713 65.8533 246.782 65.4023 246.76 64.911L246.518 58.146H247.431L247.607 63.723C247.622 64.097 247.681 64.3903 247.783 64.603C247.893 64.8083 248.04 64.9513 248.223 65.032C248.407 65.1127 248.608 65.153 248.828 65.153C248.982 65.153 249.092 65.197 249.158 65.285C249.232 65.3657 249.268 65.4647 249.268 65.582C249.268 65.6993 249.217 65.8093 249.114 65.912C249.012 66.0073 248.88 66.055 248.718 66.055C248.491 66.055 248.297 66.0257 248.135 65.967C247.974 65.901 247.842 65.8203 247.739 65.725C247.637 65.6223 247.556 65.5087 247.497 65.384C247.439 65.252 247.395 65.12 247.365 64.988L247.673 65.296C247.644 65.6847 247.56 66.0697 247.42 66.451C247.288 66.8397 247.083 67.1917 246.804 67.507C246.526 67.8223 246.152 68.0753 245.682 68.266C245.22 68.4567 244.648 68.552 243.966 68.552C243.585 68.552 243.215 68.4933 242.855 68.376C242.503 68.266 242.188 68.101 241.909 67.881C241.638 67.661 241.422 67.3933 241.26 67.078C241.099 66.77 241.018 66.4143 241.018 66.011Z" fill="#565050"/>
<path d="M252.101 68.387C251.639 68.387 251.221 68.2807 250.847 68.068C250.473 67.8553 250.176 67.5327 249.956 67.1C249.736 66.6747 249.626 66.1393 249.626 65.494C249.626 64.9 249.695 64.3537 249.835 63.855C249.974 63.3563 250.157 62.9273 250.385 62.568C250.619 62.2013 250.876 61.919 251.155 61.721C251.433 61.523 251.708 61.424 251.98 61.424C252.222 61.424 252.438 61.4937 252.629 61.633C252.819 61.7723 252.97 61.9667 253.08 62.216C253.19 62.4653 253.245 62.7623 253.245 63.107C253.245 63.415 253.197 63.723 253.102 64.031C253.006 64.339 252.827 64.6177 252.563 64.867C252.306 65.1163 251.936 65.307 251.452 65.439L252.167 64.834C252.401 64.8927 252.636 64.9477 252.871 64.999C253.113 65.043 253.358 65.0797 253.608 65.109C253.864 65.1383 254.132 65.153 254.411 65.153C254.565 65.153 254.675 65.197 254.741 65.285C254.814 65.3657 254.851 65.4647 254.851 65.582C254.851 65.6993 254.799 65.8093 254.697 65.912C254.594 66.0073 254.462 66.055 254.301 66.055C254.103 66.055 253.89 66.044 253.663 66.022C253.435 66 253.208 65.9743 252.981 65.945C252.753 65.9083 252.537 65.868 252.332 65.824L253.289 65.791C253.472 65.989 253.597 66.2017 253.663 66.429C253.736 66.6637 253.754 66.8947 253.718 67.122C253.688 67.3567 253.604 67.5693 253.465 67.76C253.333 67.9507 253.153 68.101 252.926 68.211C252.698 68.3283 252.423 68.387 252.101 68.387ZM248.724 66.055L248.834 65.153C248.988 65.153 249.142 65.153 249.296 65.153C249.45 65.153 249.596 65.1493 249.736 65.142L249.78 65.956C249.611 65.9853 249.435 66.0073 249.252 66.022C249.076 66.044 248.9 66.055 248.724 66.055ZM252.123 67.485C252.255 67.485 252.383 67.4593 252.508 67.408C252.64 67.364 252.746 67.2833 252.827 67.166C252.915 67.056 252.959 66.9057 252.959 66.715C252.959 66.5317 252.911 66.363 252.816 66.209C252.728 66.0623 252.57 65.9413 252.343 65.846C252.115 65.7507 251.793 65.703 251.375 65.703C251.287 65.703 251.188 65.7103 251.078 65.725C250.975 65.7323 250.869 65.747 250.759 65.769C250.649 65.7837 250.535 65.8057 250.418 65.835V65.087C250.696 65.0503 250.949 64.9953 251.177 64.922C251.411 64.8413 251.617 64.7313 251.793 64.592C251.969 64.4527 252.104 64.2693 252.2 64.042C252.295 63.8147 252.343 63.536 252.343 63.206C252.343 63.096 252.328 62.9713 252.299 62.832C252.277 62.6927 252.233 62.5753 252.167 62.48C252.101 62.3773 252.013 62.326 251.903 62.326C251.793 62.326 251.657 62.3993 251.496 62.546C251.342 62.6927 251.188 62.898 251.034 63.162C250.887 63.426 250.762 63.7413 250.66 64.108C250.564 64.4673 250.517 64.8633 250.517 65.296C250.517 65.7727 250.568 66.154 250.671 66.44C250.781 66.7333 250.92 66.9533 251.089 67.1C251.257 67.254 251.433 67.3567 251.617 67.408C251.8 67.4593 251.969 67.485 252.123 67.485Z" fill="#565050"/>
<path d="M254.299 66.055L254.409 65.153C254.643 65.153 254.834 65.1383 254.981 65.109C255.127 65.0723 255.248 64.988 255.344 64.856C255.446 64.7167 255.542 64.5003 255.63 64.207C255.718 63.9137 255.82 63.503 255.938 62.975L256.763 63.206C256.719 63.3893 256.667 63.6093 256.609 63.866C256.55 64.1227 256.521 64.3573 256.521 64.57C256.521 64.6873 256.55 64.79 256.609 64.878C256.667 64.966 256.767 65.0357 256.906 65.087C257.053 65.131 257.247 65.153 257.489 65.153C257.709 65.153 257.888 65.1347 258.028 65.098C258.167 65.0613 258.281 64.9733 258.369 64.834C258.464 64.6947 258.548 64.471 258.622 64.163C258.695 63.855 258.772 63.4333 258.853 62.898L259.689 63.052C259.667 63.184 259.641 63.3453 259.612 63.536C259.582 63.7267 259.553 63.9173 259.524 64.108C259.502 64.2913 259.491 64.4453 259.491 64.57C259.491 64.6727 259.513 64.7717 259.557 64.867C259.608 64.955 259.703 65.0247 259.843 65.076C259.989 65.1273 260.206 65.153 260.492 65.153C260.859 65.153 261.122 65.076 261.284 64.922C261.452 64.768 261.537 64.5333 261.537 64.218C261.537 64.0493 261.533 63.8733 261.526 63.69C261.518 63.4993 261.504 63.2903 261.482 63.063C261.467 62.8283 261.441 62.5607 261.405 62.26L262.208 62.205C262.252 62.799 262.299 63.2867 262.351 63.668C262.409 64.0493 262.49 64.35 262.593 64.57C262.703 64.7827 262.849 64.933 263.033 65.021C263.216 65.109 263.458 65.153 263.759 65.153C263.913 65.153 264.023 65.197 264.089 65.285C264.162 65.3657 264.199 65.4647 264.199 65.582C264.199 65.6993 264.147 65.8093 264.045 65.912C263.942 66.0073 263.81 66.055 263.649 66.055C263.399 66.055 263.176 66.022 262.978 65.956C262.787 65.8827 262.618 65.7873 262.472 65.67C262.332 65.5453 262.215 65.406 262.12 65.252C262.032 65.0907 261.969 64.922 261.933 64.746L262.131 64.812C262.05 65.142 261.922 65.3987 261.746 65.582C261.577 65.758 261.375 65.8827 261.141 65.956C260.906 66.022 260.657 66.055 260.393 66.055C260.07 66.055 259.806 66.0147 259.601 65.934C259.395 65.8533 259.234 65.7323 259.117 65.571C259.007 65.4023 258.934 65.1897 258.897 64.933H259.271C259.131 65.2483 258.985 65.4867 258.831 65.648C258.677 65.8093 258.486 65.9193 258.259 65.978C258.032 66.0293 257.731 66.055 257.357 66.055C257.173 66.055 256.975 66.0257 256.763 65.967C256.557 65.9083 256.378 65.7947 256.224 65.626C256.07 65.45 255.978 65.1897 255.949 64.845L256.279 64.779C256.154 65.153 256 65.4317 255.817 65.615C255.641 65.791 255.428 65.9083 255.179 65.967C254.929 66.0257 254.636 66.055 254.299 66.055Z" fill="#565050"/>
<path d="M263.645 66.055L263.755 65.153C264.114 65.153 264.4 65.131 264.613 65.087C264.825 65.043 264.979 64.955 265.075 64.823C265.17 64.6837 265.218 64.4783 265.218 64.207C265.218 64.0237 265.188 63.8073 265.13 63.558C265.071 63.3013 264.994 63.03 264.899 62.744C264.803 62.458 264.701 62.1757 264.591 61.897L265.482 61.567C265.577 61.8017 265.665 62.0693 265.746 62.37C265.834 62.6707 265.907 62.9677 265.966 63.261C266.024 63.5543 266.054 63.811 266.054 64.031C266.054 64.3243 266.021 64.5847 265.955 64.812C265.896 65.032 265.804 65.2227 265.68 65.384C265.555 65.538 265.394 65.6663 265.196 65.769C265.005 65.8643 264.781 65.9377 264.525 65.989C264.268 66.033 263.975 66.055 263.645 66.055ZM265.053 60.423C264.899 60.423 264.767 60.3717 264.657 60.269C264.554 60.159 264.503 60.0307 264.503 59.884C264.503 59.7373 264.554 59.609 264.657 59.499C264.767 59.389 264.899 59.334 265.053 59.334C265.199 59.334 265.324 59.389 265.427 59.499C265.537 59.609 265.592 59.7373 265.592 59.884C265.592 60.0307 265.537 60.159 265.427 60.269C265.324 60.3717 265.199 60.423 265.053 60.423Z" fill="#565050"/>
<path d="M93.7245 39.808L66.6525 36.928H94.2365L93.7245 39.808ZM94.8125 33.6L67.7405 30.72H95.2605L94.8125 33.6ZM95.2605 27.456L68.1245 24.576H94.6845L95.2605 27.456ZM94.0445 21.312L66.9085 18.432H93.4685L94.0445 21.312ZM91.0365 6.144L91.6125 9.024L64.5405 6.144H91.0365ZM92.2525 12.288L92.8285 15.168L65.7565 12.288H92.2525ZM90.4605 2.88L63.3885 0H89.8845L90.4605 2.88ZM105.244 0L106.076 14.08H106.524L112.412 0H125.852L109.725 29.12L107.868 40H95.7085L97.5645 29.12L91.8045 0H105.244Z" fill="#6BA018"/>
<path d="M156.464 26.24H146.928L146.16 30.592H157.999L156.335 40H133.743L139.632 6.144H162.16L159.152 15.744H148.719L147.951 20.096H157.551L156.464 26.24ZM131.632 39.808L104.495 36.928H132.143L131.632 39.808ZM133.807 27.456L106.671 24.576H134.32L133.807 27.456ZM134.895 21.312L107.759 18.432H135.408L134.895 21.312ZM135.983 15.168L108.847 12.288H136.495L135.983 15.168ZM137.072 9.024L109.936 6.144H137.52L137.072 9.024ZM132.719 33.6L105.583 30.72H133.231L132.719 33.6Z" fill="#6BA018"/>
<path d="M196.544 40H175.743L181.632 6.144H192.895L188.607 30.592H198.208L196.544 40ZM173.632 39.808L146.495 36.928H174.143L173.632 39.808ZM175.807 27.456L148.671 24.576H176.32L175.807 27.456ZM176.895 21.312L149.759 18.432H177.408L176.895 21.312ZM177.983 15.168L150.847 12.288H178.495L177.983 15.168ZM179.072 9.024L151.936 6.144H179.52L179.072 9.024ZM174.719 33.6L147.583 30.72H175.231L174.719 33.6Z" fill="#6BA018"/>
<path d="M232.856 40H212.056L217.944 6.144H229.208L224.92 30.592H234.52L232.856 40ZM209.944 39.808L182.808 36.928H210.456L209.944 39.808ZM212.12 27.456L184.984 24.576H212.632L212.12 27.456ZM213.208 21.312L186.072 18.432H213.72L213.208 21.312ZM214.296 15.168L187.16 12.288H214.808L214.296 15.168ZM215.384 9.024L188.248 6.144H215.832L215.384 9.024ZM211.032 33.6L183.896 30.72H211.544L211.032 33.6Z" fill="#6BA018"/>
<path d="M268.976 40L268.721 34.816H260.657L258.673 40H247.601L261.808 6.144H277.68L280.176 40H268.976ZM268.721 25.664V15.936H267.825L264.049 25.664H268.721ZM245.553 39.744L219.312 36.928H246.769L245.553 39.744ZM248.176 33.536L221.936 30.72H249.393L248.176 33.536ZM250.8 27.392L224.561 24.576H251.952L250.8 27.392ZM253.36 21.248L227.184 18.432H254.576L253.36 21.248ZM255.984 15.104L229.808 12.288H257.136L255.984 15.104ZM258.545 8.896L232.433 6.144H259.696L258.545 8.896Z" fill="#6BA018"/>
<path d="M356.336 38.6102C357.836 37.1673 359.09 35.4977 360.025 33.6967C360.961 31.8958 361.56 29.9987 361.789 28.1137C362.018 26.2288 361.872 24.393 361.36 22.7111C360.847 21.0293 359.978 19.5342 358.802 18.3115C357.626 17.0887 356.165 16.162 354.505 15.5845C352.844 15.0069 351.015 14.7897 349.123 14.9454C347.23 15.101 345.311 15.6263 343.476 16.4914C341.64 17.3565 339.923 18.5444 338.423 19.9873L356.336 38.6102Z" fill="#6BA018" fill-opacity="0.2"/>
<path d="M-15.0916 167.52C-6.61349 166.58 1.609 164.092 9.10638 160.199C16.6038 156.306 23.2292 151.084 28.6044 144.831C33.9796 138.578 37.9993 131.416 40.434 123.755C42.8687 116.094 43.6707 108.083 42.7943 100.18C41.9178 92.2771 39.38 84.6367 35.3258 77.6951C31.2716 70.7536 25.7804 64.6468 19.1657 59.7234C12.551 54.8 4.94234 51.1565 -3.22585 49.0009C-11.394 46.8452 -19.9618 46.2197 -28.44 47.1599L-27.5592 55.1018C-20.1999 54.2856 -12.7628 54.8286 -5.67254 56.6998C1.41771 58.5709 8.02227 61.7336 13.764 66.0073C19.5058 70.2809 24.2724 75.5818 27.7915 81.6073C31.3107 87.6328 33.5136 94.2649 34.2744 101.125C35.0352 107.985 34.339 114.939 32.2256 121.589C30.1122 128.239 26.623 134.455 21.9571 139.883C17.2913 145.311 11.5402 149.844 5.03223 153.223C-1.47573 156.603 -8.61312 158.762 -15.9724 159.578L-15.0916 167.52Z" fill="#6BA018" fill-opacity="0.07"/>
<path d="M413.8 345.056C399.2 351.743 382.348 351.934 366.951 345.588C351.555 339.241 338.875 326.877 331.701 311.214C324.527 295.551 323.447 277.874 328.698 262.07C333.949 246.266 345.102 233.631 359.702 226.944L367.865 244.767C357.671 249.436 349.884 258.258 346.218 269.292C342.552 280.326 343.306 292.669 348.315 303.605C353.324 314.54 362.177 323.173 372.927 327.605C383.677 332.036 395.443 331.902 405.637 327.233L413.8 345.056Z" fill="#6BA018" fill-opacity="0.07"/>
</svg>
