<?xml version="1.0" standalone="no"?>
<!DOCTYPE svg PUBLIC "-//W3C//DTD SVG 20010904//EN"
 "http://www.w3.org/TR/2001/REC-SVG-20010904/DTD/svg10.dtd">
<svg version="1.0" xmlns="http://www.w3.org/2000/svg"
 width="605.000000pt" height="650.000000pt" viewBox="0 0 605.000000 650.000000"
 preserveAspectRatio="xMidYMid meet">

<g transform="translate(0.000000,650.000000) scale(0.100000,-0.100000)"
fill="#000000" stroke="none">
<path d="M2815 5813 c-191 -13 -440 -62 -635 -125 -966 -312 -1665 -1144
-1816 -2160 -22 -150 -29 -449 -15 -603 68 -717 403 -1357 951 -1817 260 -218
611 -406 940 -503 263 -78 488 -109 775 -108 427 1 799 89 1178 279 804 404
1348 1180 1452 2073 19 161 19 451 0 612 -52 443 -218 877 -475 1239 -533 750
-1434 1176 -2355 1113z m423 -434 c662 -72 1259 -435 1625 -989 183 -278 309
-615 351 -938 21 -160 21 -424 0 -584 -150 -1160 -1179 -2009 -2349 -1937
-618 38 -1181 324 -1583 804 -246 293 -420 677 -487 1075 -23 133 -31 431 -16
572 103 953 773 1720 1701 1947 63 16 156 34 205 40 50 6 101 13 115 15 58 8
348 5 438 -5z"/>
<path d="M2100 4827 c-217 -62 -340 -253 -285 -443 24 -84 69 -165 118 -210
22 -21 35 -30 27 -19 -8 11 2 6 22 -12 21 -18 80 -55 132 -83 52 -28 114 -68
137 -89 l43 -38 6 -106 c3 -58 9 -109 12 -113 4 -3 -3 -29 -16 -58 -12 -28
-26 -64 -30 -81 -4 -16 -9 -39 -12 -50 -5 -18 -4 -18 10 2 9 12 23 20 30 17
34 -13 42 -149 11 -184 -13 -14 -14 -23 -6 -39 6 -11 11 -32 11 -48 1 -23 2
-25 10 -11 19 32 100 -13 100 -56 1 -24 22 -56 38 -56 5 0 13 -7 16 -16 6 -15
8 -15 24 0 18 15 18 13 7 -60 l-12 -75 26 -13 c14 -7 49 -16 76 -20 l50 -7
-42 20 c-24 11 -48 31 -54 45 -7 14 -16 23 -21 20 -11 -7 -3 71 11 106 8 21
10 14 10 -37 1 -104 55 -143 194 -143 73 0 163 28 192 60 17 19 17 19 -13 8
-17 -7 -34 -10 -37 -6 -15 15 16 44 103 95 101 60 172 117 172 139 0 7 26 33
58 57 50 39 105 107 86 107 -3 0 -35 -27 -71 -60 -61 -58 -94 -72 -109 -49 -3
6 9 26 27 45 18 18 29 37 25 41 -4 4 -34 -22 -66 -57 -33 -36 -59 -61 -60 -57
0 13 -59 -32 -70 -53 -8 -16 -7 -18 4 -14 29 11 27 -17 -4 -46 -28 -27 -137
-76 -147 -67 -2 3 10 17 28 31 41 35 32 43 -20 17 -45 -23 -92 -30 -57 -8 10
7 50 35 88 64 39 28 82 54 97 58 42 9 388 355 355 355 -5 0 -36 -18 -69 -40
-32 -21 -62 -37 -65 -34 -7 8 47 52 116 94 33 21 79 62 110 101 30 37 73 79
97 94 23 16 63 46 90 68 58 50 73 42 23 -13 -20 -22 -36 -43 -36 -46 0 -7 45
27 103 77 55 47 130 89 154 84 10 -2 29 -6 43 -9 14 -3 33 -19 43 -35 17 -29
17 -32 1 -63 -9 -18 -27 -46 -40 -61 -41 -49 -26 -55 16 -7 21 25 39 41 40 37
0 -15 -43 -92 -83 -147 -48 -64 -174 -199 -181 -193 -2 3 -12 -7 -21 -21 -10
-14 -21 -23 -26 -21 -10 6 -49 -30 -49 -45 0 -24 42 -7 77 31 42 46 90 73 144
83 27 5 50 21 85 59 27 28 53 51 58 49 41 -13 81 49 116 177 20 77 30 98 49
108 31 15 61 1 61 -29 0 -12 -29 -76 -65 -144 -37 -69 -62 -129 -59 -138 7
-18 -64 -153 -84 -161 -11 -4 -13 1 -10 20 3 14 4 25 2 25 -1 0 -21 -24 -44
-52 -23 -29 -46 -53 -50 -53 -5 0 -59 -50 -122 -112 -62 -61 -138 -134 -168
-162 l-55 -52 40 18 c22 9 60 31 85 49 25 17 67 42 93 55 27 13 74 47 106 76
47 42 60 60 65 93 3 22 12 41 19 41 6 1 19 2 27 3 15 1 66 92 178 315 48 98
57 122 57 170 0 53 -1 56 -27 59 -15 2 -36 -2 -48 -8 -18 -10 -20 -8 -20 25 0
56 -44 95 -107 95 -88 0 -228 -41 -347 -101 -61 -31 -423 -298 -465 -342 l-23
-26 -27 25 c-14 13 -32 22 -39 19 -7 -2 -15 2 -18 9 -9 24 -63 37 -176 43 -78
4 -108 3 -108 -6 0 -18 -55 -13 -83 9 -14 11 -32 20 -40 20 -17 0 -67 38 -67
51 0 5 11 2 25 -7 20 -13 37 -15 77 -10 54 7 88 21 88 35 0 5 -26 18 -59 30
-65 23 -91 45 -74 62 8 8 21 6 43 -6 38 -20 97 -16 135 9 31 20 31 30 3 43
-20 9 -17 11 27 22 28 7 61 23 75 36 38 36 177 107 226 116 66 13 138 -5 223
-56 41 -25 85 -45 96 -45 15 1 10 6 -17 20 -20 11 -54 40 -74 64 -20 25 -46
47 -56 50 -11 2 -17 9 -13 16 3 6 3 9 -2 8 -4 -2 -18 7 -31 20 -16 16 -29 21
-48 16 -18 -5 -34 0 -56 16 -28 21 -38 22 -122 17 -50 -3 -104 -10 -119 -16
-22 -9 -33 -8 -51 4 -25 17 -36 11 -36 -16 0 -24 -55 -52 -107 -54 -38 -2 -43
1 -52 27 -6 16 -8 35 -5 42 3 8 0 40 -6 73 -7 32 -13 65 -15 73 -3 17 -10 37
-37 100 -15 35 -21 41 -28 30 -15 -23 -12 -41 15 -94 29 -57 33 -130 9 -164
-12 -17 -25 -22 -59 -22 -34 0 -47 5 -59 22 -22 31 -20 37 14 36 55 -2 82 48
56 105 -22 49 -26 80 -17 112 8 26 9 27 10 7 1 -14 5 -21 12 -16 6 4 8 19 5
37 l-6 30 22 -19 c13 -10 29 -25 37 -34 11 -13 12 -12 6 10 -30 101 -145 225
-262 281 -59 28 -80 33 -158 36 -52 2 -109 -3 -135 -10z m160 -172 c17 -21 -4
-45 -40 -45 -16 0 -30 7 -34 15 -9 26 5 45 34 45 15 0 33 -7 40 -15z m-48 -82
c9 -10 21 -28 27 -40 11 -21 9 -23 -13 -23 -29 0 -62 41 -52 65 7 20 19 19 38
-2z m167 -219 c44 -17 81 -76 81 -129 0 -65 -83 -124 -155 -111 -63 12 -136
99 -134 161 0 14 4 11 11 -10 23 -66 81 -104 129 -85 65 28 55 123 -18 171
l-28 19 37 0 c21 0 55 -7 77 -16z m654 -148 c6 -15 -22 -46 -41 -46 -15 0 -35
37 -27 50 9 15 62 12 68 -4z m127 -1 c18 -21 6 -29 -18 -14 -18 11 -24 10 -41
-5 -17 -15 -21 -16 -21 -5 0 37 56 53 80 24z m-300 -90 c0 -2 -10 -9 -22 -15
-22 -11 -22 -10 -4 4 21 17 26 19 26 11z m-353 -87 c-3 -8 -6 -5 -6 6 -1 11 2
17 5 13 3 -3 4 -12 1 -19z m303 -28 c-8 -5 -22 -9 -30 -9 -10 0 -8 3 5 9 27
12 43 12 25 0z m949 6 c-10 -9 -69 -36 -69 -32 0 7 52 35 64 36 5 0 7 -2 5 -4z
m-1278 -203 c12 -15 12 -16 -3 -11 -16 7 -24 -5 -63 -95 -8 -17 -14 -26 -15
-19 0 7 -5 10 -11 6 -14 -8 5 30 35 71 13 17 25 38 29 48 8 21 11 21 28 0z
m187 -89 c27 -19 31 -57 5 -47 -26 10 -48 33 -32 33 7 0 4 6 -7 15 -27 21 4
20 34 -1z m305 -23 c7 -7 2 -14 -16 -22 -32 -15 -77 1 -77 27 0 14 7 16 41 11
23 -3 46 -10 52 -16z m883 -18 c-16 -31 -51 -65 -111 -108 -28 -20 -17 -4 40
54 44 44 81 81 83 81 1 0 -4 -12 -12 -27z m-751 -73 c9 -15 -130 -107 -250
-166 -107 -52 -257 -104 -341 -118 l-41 -7 15 77 c12 58 13 79 4 82 -13 4 -15
34 -6 70 8 28 43 29 74 2 16 -13 37 -20 67 -20 27 0 42 -4 38 -10 -8 -13 51
-13 114 1 27 6 94 30 148 54 94 42 165 56 178 35z m-658 -23 c6 -6 -49 -137
-58 -137 -11 0 -21 86 -14 124 7 33 8 34 37 25 17 -4 33 -10 35 -12z m618 -56
c-22 -21 -155 -96 -155 -87 0 5 160 106 169 106 3 0 -3 -8 -14 -19z m795 -126
c-7 -9 -15 -13 -18 -10 -3 2 1 11 8 20 7 9 15 13 18 10 3 -2 -1 -11 -8 -20z
m-835 -40 c-40 -33 -70 -33 -32 0 15 14 36 25 45 25 13 -1 9 -7 -13 -25z
m-229 -20 c-19 -14 -56 -21 -56 -10 0 7 41 24 60 24 11 0 10 -3 -4 -14z m244
-109 c0 -3 -4 -8 -10 -11 -5 -3 -10 -1 -10 4 0 6 5 11 10 11 6 0 10 -2 10 -4z
m-483 -38 c-3 -8 -6 -5 -6 6 -1 11 2 17 5 13 3 -3 4 -12 1 -19z"/>
<path d="M2982 4193 c5 -25 28 -28 28 -4 0 12 -6 21 -16 21 -9 0 -14 -7 -12
-17z"/>
<path d="M2833 4379 c-18 -12 -33 -27 -33 -35 0 -22 16 -16 56 21 41 39 27 46
-23 14z"/>
<path d="M3801 3764 c-24 -31 -27 -54 -8 -54 8 0 21 18 30 40 18 46 8 52 -22
14z"/>
<path d="M2738 3713 c7 -3 16 -2 19 1 4 3 -2 6 -13 5 -11 0 -14 -3 -6 -6z"/>
<path d="M4025 3623 l-17 -28 23 22 c12 12 20 25 17 28 -3 3 -13 -7 -23 -22z"/>
<path d="M2185 3592 c-3 -9 -1 -18 4 -20 6 -2 11 -8 11 -13 0 -6 -4 -7 -10 -4
-5 3 -10 -1 -10 -9 0 -14 18 -32 24 -25 2 2 6 21 9 41 6 39 -15 62 -28 30z"/>
<path d="M4072 3388 c-90 -114 -237 -268 -295 -311 -21 -16 -47 -50 -62 -80
-13 -29 -50 -80 -81 -114 -30 -35 -52 -63 -47 -63 5 0 31 14 57 31 27 16 50
28 52 26 2 -2 -11 -23 -28 -48 -30 -41 -30 -43 -5 -20 15 14 27 19 27 13 0
-17 -54 -75 -89 -95 -31 -18 -41 -12 -18 12 10 11 8 11 -11 2 -12 -7 -33 -30
-47 -51 -14 -22 -38 -46 -55 -55 -16 -9 -30 -18 -30 -21 0 -3 5 -2 11 2 6 3
15 1 19 -6 9 -15 168 83 274 169 156 126 306 285 306 324 0 5 -18 -7 -39 -26
-22 -20 -52 -43 -68 -53 -15 -10 -49 -35 -74 -56 -26 -21 -54 -38 -63 -38 -46
0 8 91 143 245 40 44 87 111 106 150 19 39 51 91 71 118 65 85 30 49 -54 -55z"/>
<path d="M3043 3093 c-7 -2 -13 -9 -13 -14 0 -14 26 -10 40 6 10 12 10 15 -1
14 -8 0 -20 -3 -26 -6z"/>
<path d="M3510 2805 c-7 -8 -19 -15 -27 -15 -18 0 -73 -38 -73 -51 0 -14 26
-11 40 6 7 8 25 15 40 15 17 0 30 7 34 18 3 9 9 23 12 30 8 17 -11 15 -26 -3z"/>
<path d="M1945 2353 c-33 -9 -64 -34 -87 -71 -31 -50 -32 -161 -3 -212 23 -40
93 -80 140 -80 47 0 117 40 140 80 15 26 20 53 20 105 0 88 -22 131 -85 163
-42 21 -81 26 -125 15z m111 -76 c23 -20 28 -34 32 -84 6 -91 -27 -143 -93
-143 -66 0 -99 52 -93 143 4 50 9 64 32 84 17 14 40 23 61 23 21 0 44 -9 61
-23z"/>
<path d="M2305 2346 c-64 -28 -95 -85 -95 -169 1 -77 28 -129 82 -156 52 -25
86 -26 133 -7 29 13 75 66 75 88 0 3 -12 10 -27 15 -24 8 -30 6 -48 -21 -24
-37 -73 -46 -110 -22 -30 20 -49 85 -40 139 15 84 98 117 148 58 18 -22 30
-28 50 -24 32 6 33 9 7 51 -34 55 -111 76 -175 48z"/>
<path d="M2945 2346 c-42 -18 -83 -69 -91 -112 -10 -57 1 -142 22 -171 39 -52
71 -68 134 -68 63 0 95 16 134 69 17 23 21 42 21 111 0 90 -11 116 -67 158
-33 25 -113 32 -153 13z m128 -71 c72 -72 28 -225 -64 -225 -91 0 -133 153
-62 224 35 35 91 36 126 1z"/>
<path d="M3963 2345 c-38 -16 -53 -42 -53 -88 0 -46 30 -82 88 -102 102 -37
102 -37 102 -61 0 -28 -26 -44 -73 -44 -33 0 -67 24 -67 48 0 8 -11 9 -32 5
-18 -3 -34 -7 -35 -7 -1 -1 5 -18 15 -37 24 -48 74 -71 139 -65 66 6 100 29
114 76 10 32 9 44 -7 77 -17 34 -27 41 -94 64 -81 29 -102 47 -80 74 21 25 92
17 105 -12 7 -17 18 -23 42 -23 38 0 38 -1 18 46 -24 57 -110 81 -182 49z"/>
<path d="M2560 2320 c0 -29 1 -30 50 -30 l50 0 0 -145 0 -145 30 0 30 0 0 145
0 145 50 0 c49 0 50 1 50 30 l0 30 -130 0 -130 0 0 -30z"/>
<path d="M3240 2176 l0 -176 30 0 30 0 0 65 0 65 50 0 c60 0 114 20 129 48 20
38 13 108 -13 139 -23 27 -29 28 -125 31 l-101 4 0 -176z m172 97 c42 -38 8
-83 -64 -83 l-48 0 0 50 0 50 47 0 c29 0 53 -6 65 -17z"/>
<path d="M3560 2220 c0 -155 11 -193 64 -215 68 -29 151 -13 183 33 14 22 18
54 21 170 l4 142 -36 0 -36 0 0 -134 c0 -151 -6 -166 -64 -166 -60 0 -71 24
-75 171 l-3 129 -29 0 -29 0 0 -130z"/>
<path d="M1910 1820 c-11 -11 -20 -31 -20 -45 0 -29 32 -65 58 -65 19 0 52 29
52 45 0 5 -9 -1 -21 -14 -26 -27 -49 -24 -68 10 -13 24 -13 29 2 53 20 30 39
33 61 10 9 -8 16 -12 16 -7 0 15 -23 33 -42 33 -10 0 -27 -9 -38 -20z"/>
<path d="M2072 1773 c0 -37 3 -53 5 -35 6 42 34 43 63 1 12 -16 25 -28 28 -25
3 4 -5 17 -17 30 -19 20 -20 24 -6 30 11 4 15 15 13 33 -3 25 -7 28 -45 31
l-43 3 2 -68z m73 32 c0 -15 -8 -21 -32 -23 -30 -3 -33 -1 -33 23 0 24 3 26
33 23 24 -2 32 -8 32 -23z"/>
<path d="M2240 1775 l0 -65 48 1 47 2 -40 6 c-34 5 -40 10 -40 31 0 21 6 26
35 31 l35 6 -38 2 c-31 1 -38 4 -35 19 2 11 16 19 43 23 l40 6 -47 2 -48 1 0
-65z"/>
<path d="M2412 1779 c-12 -34 -20 -65 -17 -68 3 -3 8 5 12 17 7 30 58 31 73 1
7 -11 14 -19 16 -17 6 7 -42 122 -53 125 -5 2 -19 -24 -31 -58z m36 -17 c-27
-5 -30 1 -17 34 l11 29 12 -30 c11 -27 11 -30 -6 -33z"/>
<path d="M2558 1833 c20 -4 22 -11 24 -66 l1 -62 6 60 c5 52 9 60 31 66 17 5
7 7 -30 7 -30 -1 -45 -3 -32 -5z"/>
<path d="M2703 1775 c0 -38 2 -53 4 -32 2 20 2 52 0 70 -2 17 -4 1 -4 -38z"/>
<path d="M2808 1775 c14 -36 28 -65 31 -65 9 0 54 120 48 126 -3 3 -13 -17
-22 -45 -9 -28 -20 -53 -24 -55 -4 -3 -16 20 -26 50 -10 30 -22 54 -26 54 -4
0 4 -29 19 -65z"/>
<path d="M2960 1775 l0 -65 48 2 47 1 -42 4 c-40 4 -43 6 -43 33 0 26 4 29 38
33 l37 4 -37 1 c-30 2 -38 6 -38 21 0 15 8 21 38 24 l37 4 -42 1 -43 2 0 -65z"/>
<path d="M3220 1825 c-18 -22 -5 -45 31 -52 34 -7 49 -30 28 -44 -21 -13 -36
-11 -53 7 -14 14 -16 14 -16 0 0 -19 48 -32 69 -19 9 6 17 19 19 31 3 17 -5
23 -37 33 -23 7 -41 18 -41 25 0 20 31 25 56 9 13 -9 24 -11 24 -6 0 12 -33
31 -53 31 -8 0 -20 -7 -27 -15z"/>
<path d="M3378 1833 c20 -4 22 -10 22 -64 0 -33 4 -59 10 -59 6 0 10 26 10 59
0 54 2 60 23 64 12 2 -3 4 -33 4 -30 0 -45 -2 -32 -4z"/>
<path d="M3532 1790 c-2 -60 9 -80 43 -80 34 0 45 20 43 80 l-2 55 -3 -52 c-3
-40 -9 -55 -24 -64 -31 -16 -47 5 -52 64 l-3 52 -2 -55z"/>
<path d="M3690 1775 l0 -65 33 0 c43 0 65 17 73 56 8 43 -22 74 -71 74 l-35 0
0 -65z m71 45 c13 -7 19 -21 19 -45 0 -35 -20 -55 -54 -55 -13 0 -16 12 -16
55 0 59 9 67 51 45z"/>
<path d="M3873 1775 c0 -38 2 -53 4 -32 2 20 2 52 0 70 -2 17 -4 1 -4 -38z"/>
<path d="M3975 1820 c-33 -36 -10 -110 34 -110 33 0 61 30 61 65 0 56 -59 85
-95 45z m69 -6 c29 -28 11 -94 -25 -94 -65 0 -66 108 -2 110 6 0 19 -7 27 -16z"/>
</g>
</svg>
